#!OML:ASF F:\VICON\USERDATA\INSTALL\rory3\rory3.ASF
:FULLY-SPECIFIED
:DEGREES
656
root -0.129786 31.8455 -1.02624 -167.919 -12.3621 179.987
lowerback 21.4316 -1.57041 -3.33637
upperback 2.5632 -3.64092 -2.69163
thorax -9.16487 -1.88057 0.0375851
lowerneck -12.8113 -5.14415 -9.34589
upperneck -9.13531 -6.54542 12.7759
head 0.114307 -3.54392 5.13899
rclavicle 2.38542e-015 3.02153e-014
rhumerus -27.1572 -1.02635 -71.5783
rradius 98.4281
rwrist -22.5024
rhand -32.4964 4.74645
rfingers 7.12502
rthumb -5.72799 -25.1561
lclavicle 2.38542e-015 3.02153e-014
lhumerus -9.07885 -27.9644 87.4955
lradius 96.9364
lwrist 6.00347
lhand -26.8623 30.8571
lfingers 7.12502
lthumb -0.287116 60.8367
rfemur -23.0657 13.9761 15.8041
rtibia 31.3562
rfoot 10.1255 -12.0656
rtoes -6.83386
lfemur -54.9731 15.6248 -32.8202
ltibia 74.944
lfoot -19.6467 -6.5142
ltoes -3.96969
657
root -0.144456 31.8885 -1.04926 -167.945 -12.1373 180.138
lowerback 21.2464 -1.53194 -3.3383
upperback 2.49795 -3.56667 -2.64953
thorax -9.13482 -1.8396 0.0569615
lowerneck -12.5837 -5.10014 -9.39508
upperneck -9.32624 -6.49024 12.7544
head 0.0178061 -3.52707 5.15366
rclavicle 1.51076e-014 3.02153e-014
rhumerus -27.0747 -1.17788 -71.5489
rradius 98.3934
rwrist -22.9569
rhand -32.6754 4.91616
rfingers 7.12502
rthumb -5.90085 -24.9817
lclavicle 1.51076e-014 3.02153e-014
lhumerus -9.49991 -27.9269 87.618
lradius 96.6519
lwrist 5.87445
lhand -26.8228 30.5664
lfingers 7.12502
lthumb -0.248987 60.546
rfemur -23.1001 14.111 15.9329
rtibia 31.7368
rfoot 10.1348 -12.0438
rtoes -6.80437
lfemur -54.6088 15.7844 -32.6321
ltibia 74.4748
lfoot -19.5979 -6.53454
ltoes -3.62684
658
root -0.157978 31.9341 -1.06828 -167.998 -11.902 180.139
lowerback 21.1197 -1.51079 -3.49571
upperback 2.52019 -3.57368 -2.67059
thorax -9.03385 -1.84185 0.120055
lowerneck -12.6845 -5.04931 -9.47243
upperneck -9.38128 -6.41845 12.891
head 0.0185005 -3.49561 5.21214
rclavicle -1.43125e-014 -1.74931e-014
rhumerus -26.7554 -1.2388 -71.6031
rradius 98.293
rwrist -23.477
rhand -32.6527 4.67632
rfingers 7.12502
rthumb -5.87893 -25.2221
lclavicle -1.43125e-014 -1.74931e-014
lhumerus -9.72027 -27.781 87.5237
lradius 96.2977
lwrist 5.66386
lhand -26.7935 30.3947
lfingers 7.12502
lthumb -0.220683 60.3743
rfemur -23.2867 14.3868 15.819
rtibia 32.139
rfoot 10.0338 -12.536
rtoes -5.80238
lfemur -54.1632 15.9325 -32.5987
ltibia 73.9656
lfoot -19.5048 -6.54338
ltoes -3.26499
659
root -0.17225 31.9796 -1.08719 -168.111 -11.7917 180.213
lowerback 21.0681 -1.51663 -3.53655
upperback 2.51808 -3.58758 -2.67001
thorax -9.00551 -1.84753 0.145734
lowerneck -12.775 -5.05672 -9.46653
upperneck -9.28346 -6.42807 12.9897
head 0.0673275 -3.49674 5.23662
rclavicle -1.82882e-014 -1.59028e-015
rhumerus -26.5239 -1.35907 -71.6584
rradius 98.26
rwrist -24.0298
rhand -32.5093 4.37502
rfingers 7.12502
rthumb -5.74046 -25.5272
lclavicle -1.82882e-014 -1.59028e-015
lhumerus -10.126 -27.6822 87.5399
lradius 96.0082
lwrist 5.43827
lhand -26.8322 30.2929
lfingers 7.12502
lthumb -0.257976 60.2725
rfemur -23.0047 14.0435 16.0697
rtibia 32.6054
rfoot 9.8335 -12.3352
rtoes -6.07603
lfemur -53.6405 15.9472 -32.4224
ltibia 73.462
lfoot -19.4214 -6.59521
ltoes -2.83719
660
root -0.184704 32.0266 -1.1072 -168.199 -11.7684 180.244
lowerback 21.0529 -1.54677 -3.62489
upperback 2.46579 -3.63524 -2.61499
thorax -9.04484 -1.86129 0.268929
lowerneck -12.7988 -5.09485 -9.5012
upperneck -9.11942 -6.46864 12.9385
head 0.122124 -3.50498 5.21947
rclavicle 2.06736e-014 1.11319e-014
rhumerus -26.3635 -1.36993 -71.6451
rradius 98.2551
rwrist -24.5464
rhand -32.4323 4.22758
rfingers 7.12502
rthumb -5.6661 -25.6767
lclavicle 2.06736e-014 1.11319e-014
lhumerus -10.6042 -27.5505 87.652
lradius 95.7784
lwrist 5.35084
lhand -26.8086 30.3063
lfingers 7.12502
lthumb -0.235203 60.2859
rfemur -22.9421 13.8957 16.1656
rtibia 33.075
rfoot 10.216 -12.3577
rtoes -6.53336
lfemur -53.1099 15.837 -32.2388
ltibia 72.9571
lfoot -19.3202 -6.67241
ltoes -2.70577
